# xmcd
#
# Track frame offsets:
#	150
#	11100
#	21235
#	33190
#	46210
#	57225
#	70412
#	81802
#	91447
#	107137
#	117472
#	125987
#	139627
#	150917
#	163472
#	175692
#	189840
#
# Disc length: 2687 seconds
# Revision: 3
# Processed by: cddbd v1.5.2PL0 Copyright (c) Steve Scherf et al.
# Submitted via: dBpowerAMP V12.0
#
DISCID=e40a7d11
DTITLE=Statler Brothers The - The Best of The Statler Brothers Readers Digest Cd 1
DYEAR=1991
DGENRE=Country
TTITLE0=Flowers On The Wall
TTITLE1=Do You Know You Are My Sunshine
TTITLE2=Class Of 57
TTITLE3=Do You Remember These
TTITLE4=Bed Of Rose's
TTITLE5=Charlotte's Web
TTITLE6=I'll Even Love You Better Than I Did Then
TTITLE7=Who Am I to Say
TTITLE8=How To Be A Country Star
TTITLE9=The Official Historian On Shirley Jean Berrell
TTITLE10=Whatever Happened To Randolph Scott
TTITLE11=Susan When She Tried
TTITLE12=All American Girl
TTITLE13=Woman Without A Home
TTITLE14=Monday Morning Secretary
TTITLE15=Thank You World
TTITLE16=When My Blue Moon Turns To Gold Again
EXTD=
EXTT0=
EXTT1=
EXTT2=
EXTT3=
EXTT4=
EXTT5=
EXTT6=
EXTT7=
EXTT8=
EXTT9=
EXTT10=
EXTT11=
EXTT12=
EXTT13=
EXTT14=
EXTT15=
EXTT16=
PLAYORDER=
